<svg width="139" height="34" viewBox="0 0 139 34" fill="none" xmlns="http://www.w3.org/2000/svg">
<g filter="url(#filter0_d_233_74)">
<path d="M15.0953 20.4577C15.0953 20.0943 15.0388 19.7713 14.9257 19.4886C14.8207 19.206 14.631 18.9476 14.3564 18.7134C14.0819 18.4792 13.6942 18.2531 13.1936 18.0351C12.701 17.809 12.0711 17.5788 11.304 17.3446C10.4641 17.0862 9.6889 16.7996 8.97828 16.4846C8.27573 16.1616 7.66201 15.7901 7.13711 15.3702C6.61222 14.9422 6.20442 14.4537 5.91371 13.9046C5.623 13.3474 5.47764 12.7054 5.47764 11.9786C5.47764 11.2599 5.62704 10.6058 5.92582 10.0163C6.23268 9.42682 6.66471 8.91808 7.2219 8.49009C7.78717 8.05402 8.45338 7.7189 9.22054 7.48472C9.98769 7.24246 10.8356 7.12133 11.7642 7.12133C13.0724 7.12133 14.1989 7.36359 15.1438 7.84811C16.0966 8.33262 16.8275 8.98268 17.3362 9.79829C17.853 10.6139 18.1114 11.5143 18.1114 12.4995H15.0953C15.0953 11.918 14.9701 11.4053 14.7198 10.9611C14.4775 10.5089 14.1061 10.1536 13.6054 9.89519C13.1128 9.63678 12.487 9.50758 11.7279 9.50758C11.0092 9.50758 10.4116 9.61659 9.9352 9.83462C9.45876 10.0527 9.10344 10.3474 8.86926 10.7189C8.63508 11.0903 8.51799 11.5102 8.51799 11.9786C8.51799 12.3097 8.5947 12.6125 8.74813 12.8871C8.90156 13.1536 9.13575 13.4039 9.45068 13.6381C9.76562 13.8642 10.1613 14.0782 10.6377 14.2801C11.1142 14.4819 11.6754 14.6758 12.3214 14.8615C13.2986 15.1522 14.1505 15.4752 14.8773 15.8305C15.604 16.1778 16.2097 16.5734 16.6942 17.0176C17.1787 17.4617 17.5421 17.9664 17.7844 18.5317C18.0266 19.0889 18.1478 19.7228 18.1478 20.4334C18.1478 21.1764 17.9984 21.8466 17.6996 22.4442C17.4008 23.0337 16.9728 23.5384 16.4156 23.9583C15.8665 24.3701 15.2043 24.6891 14.4291 24.9152C13.6619 25.1332 12.806 25.2423 11.8612 25.2423C11.0132 25.2423 10.1775 25.1292 9.35378 24.9031C8.53818 24.677 7.79525 24.3338 7.125 23.8735C6.45475 23.4051 5.92178 22.8237 5.5261 22.1292C5.13041 21.4267 4.93256 20.607 4.93256 19.6703H7.97291C7.97291 20.2437 8.06981 20.7322 8.26362 21.136C8.4655 21.5397 8.74409 21.8708 9.09941 22.1292C9.45472 22.3796 9.86656 22.5653 10.3349 22.6864C10.8114 22.8076 11.3201 22.8681 11.8612 22.8681C12.5718 22.8681 13.1653 22.7672 13.6418 22.5653C14.1263 22.3634 14.4897 22.0808 14.7319 21.7174C14.9742 21.354 15.0953 20.9341 15.0953 20.4577ZM23.429 6.39455V25H20.5219V6.39455H23.429ZM22.9202 17.9624L21.9754 17.9503C21.9835 17.0458 22.1087 16.2101 22.3509 15.4429C22.6013 14.6758 22.9485 14.0095 23.3927 13.4443C23.8449 12.8709 24.3859 12.4308 25.0158 12.124C25.6457 11.809 26.3442 11.6516 27.1113 11.6516C27.7573 11.6516 28.3388 11.7404 28.8556 11.918C29.3805 12.0957 29.8327 12.3824 30.2122 12.7781C30.5918 13.1657 30.8784 13.6744 31.0722 14.3043C31.2741 14.9261 31.3751 15.6852 31.3751 16.5815V25H28.4437V16.5573C28.4437 15.9274 28.3509 15.4268 28.1651 15.0553C27.9875 14.6838 27.725 14.4173 27.3778 14.2558C27.0306 14.0863 26.6066 14.0015 26.1059 14.0015C25.5811 14.0015 25.1167 14.1064 24.713 14.3164C24.3173 14.5264 23.9862 14.813 23.7197 15.1764C23.4532 15.5398 23.2513 15.9597 23.1141 16.4362C22.9849 16.9126 22.9202 17.4213 22.9202 17.9624ZM42.5278 22.1325V15.3141C42.5278 14.8031 42.4353 14.3627 42.2503 13.9927C42.0653 13.6227 41.7834 13.3364 41.4046 13.1337C41.0346 12.9311 40.5677 12.8298 40.0039 12.8298C39.4841 12.8298 39.0348 12.9179 38.656 13.0941C38.2772 13.2703 37.9821 13.5081 37.7707 13.8077C37.5593 14.1072 37.4536 14.4463 37.4536 14.8251H34.2822C34.2822 14.2613 34.4187 13.7152 34.6918 13.1866C34.9649 12.658 35.3613 12.1867 35.8811 11.7727C36.4008 11.3586 37.0219 11.0327 37.7443 10.7948C38.4666 10.557 39.2771 10.4381 40.1757 10.4381C41.2504 10.4381 42.2018 10.6187 43.0299 10.9798C43.8668 11.341 44.5231 11.8872 44.9988 12.6184C45.4833 13.3408 45.7256 14.2481 45.7256 15.3405V21.6965C45.7256 22.3484 45.7696 22.9342 45.8577 23.454C45.9546 23.9649 46.0912 24.4098 46.2674 24.7886V25H43.0035C42.8537 24.6564 42.7348 24.2204 42.6467 23.6918C42.5674 23.1544 42.5278 22.6347 42.5278 22.1325ZM42.9903 16.3051L43.0167 18.274H40.7306C40.1404 18.274 39.6207 18.3313 39.1714 18.4458C38.7221 18.5515 38.3477 18.7101 38.0482 18.9215C37.7487 19.1329 37.524 19.3884 37.3743 19.6879C37.2245 19.9875 37.1496 20.3266 37.1496 20.7054C37.1496 21.0842 37.2377 21.4322 37.4139 21.7493C37.5901 22.0577 37.8456 22.2999 38.1803 22.4761C38.5239 22.6523 38.9379 22.7404 39.4225 22.7404C40.0743 22.7404 40.6426 22.6082 41.1271 22.344C41.6204 22.0709 42.008 21.7405 42.2899 21.3529C42.5718 20.9565 42.7216 20.5821 42.7392 20.2297L43.7699 21.6436C43.6642 22.0048 43.4836 22.3924 43.2281 22.8065C42.9726 23.2205 42.6379 23.6169 42.2238 23.9957C41.8186 24.3657 41.3297 24.6696 40.7571 24.9075C40.1933 25.1454 39.5414 25.2643 38.8014 25.2643C37.8676 25.2643 37.0351 25.0793 36.3039 24.7093C35.5727 24.3305 35.0001 23.8239 34.5861 23.1897C34.1721 22.5466 33.965 21.8198 33.965 21.0093C33.965 20.2517 34.106 19.5822 34.3879 19.0008C34.6786 18.4106 35.1014 17.9172 35.6564 17.5208C36.2202 17.1244 36.9074 16.8249 37.7178 16.6223C38.5283 16.4108 39.4533 16.3051 40.4928 16.3051H42.9903ZM52.2533 13.4245V25H49.0687V10.7023H52.108L52.2533 13.4245ZM56.6272 10.6099L56.6008 13.5698C56.407 13.5346 56.1955 13.5081 55.9665 13.4905C55.7463 13.4729 55.526 13.4641 55.3058 13.4641C54.7596 13.4641 54.2795 13.5434 53.8655 13.7019C53.4514 13.8517 53.1034 14.0719 52.8215 14.3627C52.5485 14.6446 52.337 14.9881 52.1873 15.3934C52.0375 15.7986 51.9494 16.2523 51.923 16.7544L51.1962 16.8073C51.1962 15.9087 51.2843 15.0762 51.4605 14.3098C51.6367 13.5434 51.901 12.8695 52.2533 12.288C52.6145 11.7066 53.0638 11.2529 53.6012 10.927C54.1474 10.601 54.7772 10.4381 55.4908 10.4381C55.6846 10.4381 55.8916 10.4557 56.1119 10.4909C56.3409 10.5262 56.5127 10.5658 56.6272 10.6099ZM62.0318 10.7023V25H58.834V10.7023H62.0318ZM58.6225 6.94955C58.6225 6.46503 58.7811 6.0642 59.0982 5.74706C59.4242 5.42112 59.8735 5.25814 60.4461 5.25814C61.0099 5.25814 61.4548 5.42112 61.7807 5.74706C62.1066 6.0642 62.2696 6.46503 62.2696 6.94955C62.2696 7.42525 62.1066 7.82168 61.7807 8.13882C61.4548 8.45595 61.0099 8.61452 60.4461 8.61452C59.8735 8.61452 59.4242 8.45595 59.0982 8.13882C58.7811 7.82168 58.6225 7.42525 58.6225 6.94955ZM73.5809 22.1325V15.3141C73.5809 14.8031 73.4884 14.3627 73.3034 13.9927C73.1184 13.6227 72.8365 13.3364 72.4577 13.1337C72.0877 12.9311 71.6208 12.8298 71.057 12.8298C70.5372 12.8298 70.088 12.9179 69.7092 13.0941C69.3304 13.2703 69.0352 13.5081 68.8238 13.8077C68.6124 14.1072 68.5067 14.4463 68.5067 14.8251H65.3353C65.3353 14.2613 65.4718 13.7152 65.7449 13.1866C66.018 12.658 66.4144 12.1867 66.9342 11.7727C67.454 11.3586 68.075 11.0327 68.7974 10.7948C69.5198 10.557 70.3302 10.4381 71.2288 10.4381C72.3035 10.4381 73.2549 10.6187 74.083 10.9798C74.9199 11.341 75.5762 11.8872 76.0519 12.6184C76.5364 13.3408 76.7787 14.2481 76.7787 15.3405V21.6965C76.7787 22.3484 76.8227 22.9342 76.9108 23.454C77.0077 23.9649 77.1443 24.4098 77.3205 24.7886V25H74.0566C73.9068 24.6564 73.7879 24.2204 73.6998 23.6918C73.6205 23.1544 73.5809 22.6347 73.5809 22.1325ZM74.0434 16.3051L74.0698 18.274H71.7838C71.1935 18.274 70.6738 18.3313 70.2245 18.4458C69.7752 18.5515 69.4008 18.7101 69.1013 18.9215C68.8018 19.1329 68.5771 19.3884 68.4274 19.6879C68.2776 19.9875 68.2027 20.3266 68.2027 20.7054C68.2027 21.0842 68.2908 21.4322 68.467 21.7493C68.6432 22.0577 68.8987 22.2999 69.2334 22.4761C69.577 22.6523 69.9911 22.7404 70.4756 22.7404C71.1275 22.7404 71.6957 22.6082 72.1802 22.344C72.6735 22.0709 73.0611 21.7405 73.343 21.3529C73.6249 20.9565 73.7747 20.5821 73.7923 20.2297L74.823 21.6436C74.7173 22.0048 74.5367 22.3924 74.2812 22.8065C74.0258 23.2205 73.691 23.6169 73.277 23.9957C72.8717 24.3657 72.3828 24.6696 71.8102 24.9075C71.2464 25.1454 70.5945 25.2643 69.8545 25.2643C68.9207 25.2643 68.0882 25.0793 67.357 24.7093C66.6259 24.3305 66.0533 23.8239 65.6392 23.1897C65.2252 22.5466 65.0182 21.8198 65.0182 21.0093C65.0182 20.2517 65.1591 19.5822 65.441 19.0008C65.7317 18.4106 66.1546 17.9172 66.7096 17.5208C67.2734 17.1244 67.9605 16.8249 68.771 16.6223C69.5814 16.4108 70.5064 16.3051 71.5459 16.3051H74.0434ZM79.9842 6.39455H82.9034V22.2019L82.6248 25H79.9842V6.39455ZM91.4552 18.3258V18.5802C91.4552 19.5492 91.3461 20.4415 91.1281 21.2571C90.9181 22.0646 90.5951 22.7672 90.1591 23.3648C89.7311 23.9623 89.1981 24.4267 88.5602 24.7577C87.9303 25.0808 87.1995 25.2423 86.3677 25.2423C85.5521 25.2423 84.8415 25.0888 84.2359 24.782C83.6302 24.4751 83.1215 24.039 82.7096 23.4738C82.3059 22.9085 81.9788 22.2342 81.7285 21.4509C81.4781 20.6676 81.3005 19.8036 81.1955 18.8587V18.0472C81.3005 17.0943 81.4781 16.2302 81.7285 15.455C81.9788 14.6717 82.3059 13.9974 82.7096 13.4322C83.1215 12.8588 83.6262 12.4187 84.2237 12.1119C84.8294 11.805 85.536 11.6516 86.3435 11.6516C87.1833 11.6516 87.9222 11.8131 88.5602 12.1361C89.2062 12.4591 89.7432 12.9194 90.1712 13.517C90.5992 14.1064 90.9181 14.809 91.1281 15.6246C91.3461 16.4402 91.4552 17.3406 91.4552 18.3258ZM88.5359 18.5802V18.3258C88.5359 17.7363 88.4875 17.1831 88.3906 16.6663C88.2937 16.1414 88.1322 15.6811 87.9061 15.2854C87.688 14.8897 87.3892 14.5789 87.0097 14.3527C86.6382 14.1186 86.1739 14.0015 85.6167 14.0015C85.0999 14.0015 84.6558 14.0903 84.2843 14.268C83.9128 14.4456 83.6019 14.6879 83.3516 14.9947C83.1013 15.3016 82.9034 15.6569 82.7581 16.0607C82.6208 16.4644 82.5279 16.9005 82.4795 17.3689V19.5613C82.5522 20.1669 82.7056 20.7241 82.9398 21.2329C83.182 21.7335 83.5212 22.1373 83.9573 22.4442C84.3933 22.743 84.9546 22.8924 85.6409 22.8924C86.182 22.8924 86.6382 22.7833 87.0097 22.5653C87.3812 22.3473 87.6759 22.0444 87.894 21.6568C88.1201 21.2611 88.2816 20.8009 88.3785 20.276C88.4834 19.7511 88.5359 19.1858 88.5359 18.5802ZM102.123 22.1325V15.3141C102.123 14.8031 102.031 14.3627 101.846 13.9927C101.661 13.6227 101.379 13.3364 101 13.1337C100.63 12.9311 100.163 12.8298 99.5994 12.8298C99.0797 12.8298 98.6304 12.9179 98.2516 13.0941C97.8728 13.2703 97.5777 13.5081 97.3663 13.8077C97.1548 14.1072 97.0491 14.4463 97.0491 14.8251H93.8777C93.8777 14.2613 94.0143 13.7152 94.2874 13.1866C94.5605 12.658 94.9569 12.1867 95.4766 11.7727C95.9964 11.3586 96.6175 11.0327 97.3398 10.7948C98.0622 10.557 98.8727 10.4381 99.7712 10.4381C100.846 10.4381 101.797 10.6187 102.625 10.9798C103.462 11.341 104.119 11.8872 104.594 12.6184C105.079 13.3408 105.321 14.2481 105.321 15.3405V21.6965C105.321 22.3484 105.365 22.9342 105.453 23.454C105.55 23.9649 105.687 24.4098 105.863 24.7886V25H102.599C102.449 24.6564 102.33 24.2204 102.242 23.6918C102.163 23.1544 102.123 22.6347 102.123 22.1325ZM102.586 16.3051L102.612 18.274H100.326C99.736 18.274 99.2162 18.3313 98.767 18.4458C98.3177 18.5515 97.9433 18.7101 97.6438 18.9215C97.3442 19.1329 97.1196 19.3884 96.9698 19.6879C96.8201 19.9875 96.7452 20.3266 96.7452 20.7054C96.7452 21.0842 96.8333 21.4322 97.0095 21.7493C97.1857 22.0577 97.4411 22.2999 97.7759 22.4761C98.1195 22.6523 98.5335 22.7404 99.018 22.7404C99.6699 22.7404 100.238 22.6082 100.723 22.344C101.216 22.0709 101.604 21.7405 101.885 21.3529C102.167 20.9565 102.317 20.5821 102.335 20.2297L103.365 21.6436C103.26 22.0048 103.079 22.3924 102.824 22.8065C102.568 23.2205 102.233 23.6169 101.819 23.9957C101.414 24.3657 100.925 24.6696 100.353 24.9075C99.7888 25.1454 99.1369 25.2643 98.397 25.2643C97.4632 25.2643 96.6307 25.0793 95.8995 24.7093C95.1683 24.3305 94.5957 23.8239 94.1817 23.1897C93.7676 22.5466 93.5606 21.8198 93.5606 21.0093C93.5606 20.2517 93.7015 19.5822 93.9834 19.0008C94.2742 18.4106 94.697 17.9172 95.252 17.5208C95.8158 17.1244 96.5029 16.8249 97.3134 16.6223C98.1239 16.4108 99.0489 16.3051 100.088 16.3051H102.586ZM128.433 25.2643C127.375 25.2643 126.42 25.0925 125.565 24.7489C124.719 24.3966 123.997 23.9076 123.398 23.2822C122.808 22.6567 122.354 21.9211 122.037 21.0754C121.72 20.2297 121.561 19.3179 121.561 18.3401V17.8115C121.561 16.6927 121.724 15.6797 122.05 14.7723C122.376 13.8649 122.83 13.0897 123.411 12.4466C123.993 11.7947 124.68 11.297 125.473 10.9534C126.265 10.6099 127.124 10.4381 128.049 10.4381C129.071 10.4381 129.965 10.6099 130.732 10.9534C131.498 11.297 132.133 11.7815 132.635 12.407C133.146 13.0236 133.524 13.7592 133.771 14.6137C134.027 15.4682 134.154 16.4108 134.154 17.4415V18.8026H123.107V16.5166H131.009V16.2655C130.992 15.6929 130.877 15.1555 130.666 14.6534C130.463 14.1512 130.15 13.746 129.728 13.4377C129.305 13.1293 128.741 12.9752 128.036 12.9752C127.508 12.9752 127.036 13.0897 126.622 13.3187C126.217 13.539 125.878 13.8605 125.605 14.2834C125.332 14.7062 125.12 15.2172 124.97 15.8162C124.83 16.4064 124.759 17.0715 124.759 17.8115V18.3401C124.759 18.9656 124.843 19.547 125.01 20.0844C125.186 20.6129 125.442 21.0754 125.777 21.4718C126.111 21.8683 126.517 22.181 126.992 22.41C127.468 22.6303 128.01 22.7404 128.618 22.7404C129.384 22.7404 130.067 22.5862 130.666 22.2779C131.265 21.9696 131.785 21.5335 132.225 20.9697L133.903 22.595C133.595 23.0443 133.194 23.476 132.701 23.89C132.207 24.2952 131.604 24.6256 130.89 24.8811C130.186 25.1365 129.366 25.2643 128.433 25.2643Z" fill="#E0F5DA"/>
</g>
<path d="M108.575 26.7388C108.31 26.5409 108.136 26.2445 108.09 25.9142C108.044 25.5839 108.131 25.2464 108.33 24.9752C108.529 24.7041 108.826 24.5213 109.155 24.4666C109.484 24.4119 109.819 24.4897 110.086 24.6832C110.506 24.9917 110.983 25.213 111.491 25.3345C111.999 25.456 112.527 25.4752 113.046 25.3912C113.565 25.3071 114.064 25.1213 114.515 24.8445C114.966 24.5677 115.36 24.2051 115.675 23.7777C115.989 23.3503 116.218 22.8663 116.347 22.3533C116.477 21.8404 116.506 21.3086 116.432 20.7881C116.357 20.2678 116.182 19.7691 115.914 19.3204C115.647 18.8719 115.294 18.4821 114.874 18.1736C114.607 17.9769 114.43 17.6799 114.382 17.348C114.335 17.0161 114.421 16.6765 114.621 16.4039C114.822 16.1313 115.12 15.9481 115.451 15.8944C115.782 15.8408 116.118 15.9212 116.386 16.118C117.074 16.62 117.654 17.2554 118.093 17.9878C118.532 18.7203 118.822 19.5352 118.945 20.386C119.068 21.2368 119.022 22.1067 118.81 22.9457C118.599 23.7848 118.225 24.5765 117.711 25.2755C117.197 25.9745 116.552 26.567 115.814 27.0191C115.077 27.4711 114.26 27.7738 113.411 27.9097C112.562 28.0457 111.698 28.0123 110.868 27.8113C110.038 27.6104 109.259 27.2459 108.575 26.7388Z" fill="#E0F5DA"/>
<path d="M110.361 21.4539C108.979 20.4373 108.065 18.9028 107.82 17.1881C107.575 15.4734 108.02 13.7188 109.056 12.3104C110.091 10.902 111.634 9.95511 113.344 9.67807C115.054 9.40102 116.791 9.8165 118.173 10.8331C118.44 11.0299 118.617 11.3269 118.665 11.6587C118.712 11.9906 118.626 12.3302 118.426 12.6028C118.225 12.8754 117.927 13.0587 117.596 13.1123C117.265 13.1659 116.929 13.0855 116.661 12.8887C116.242 12.5802 115.764 12.3589 115.256 12.2375C114.749 12.116 114.22 12.0967 113.701 12.1808C113.182 12.2649 112.683 12.4506 112.232 12.7275C111.781 13.0043 111.387 13.3668 111.073 13.7942C110.759 14.2216 110.53 14.7056 110.4 15.2185C110.27 15.7315 110.242 16.2633 110.316 16.7837C110.39 17.3041 110.566 17.8028 110.833 18.2515C111.1 18.7 111.454 19.0897 111.873 19.3982C112.141 19.595 112.318 19.892 112.365 20.2239C112.413 20.5557 112.327 20.8954 112.126 21.1679C111.926 21.4406 111.627 21.6238 111.296 21.6774C110.965 21.7311 110.629 21.6506 110.361 21.4539Z" fill="#E0F5DA"/>
<defs>
<filter id="filter0_d_233_74" x="0.932556" y="5.2583" width="137.222" height="28.0059" filterUnits="userSpaceOnUse" color-interpolation-filters="sRGB">
<feFlood flood-opacity="0" result="BackgroundImageFix"/>
<feColorMatrix in="SourceAlpha" type="matrix" values="0 0 0 0 0 0 0 0 0 0 0 0 0 0 0 0 0 0 127 0" result="hardAlpha"/>
<feOffset dy="4"/>
<feGaussianBlur stdDeviation="2"/>
<feComposite in2="hardAlpha" operator="out"/>
<feColorMatrix type="matrix" values="0 0 0 0 0 0 0 0 0 0 0 0 0 0 0 0 0 0 0.25 0"/>
<feBlend mode="normal" in2="BackgroundImageFix" result="effect1_dropShadow_233_74"/>
<feBlend mode="normal" in="SourceGraphic" in2="effect1_dropShadow_233_74" result="shape"/>
</filter>
</defs>
</svg>
