<svg width="28" height="46" viewBox="0 0 28 46" fill="none" xmlns="http://www.w3.org/2000/svg">
<path d="M2.03981 42.8673C1.38213 42.3724 0.949182 41.6313 0.835285 40.8054C0.72137 39.9795 0.935832 39.1356 1.43186 38.4576C1.92776 37.7798 2.6652 37.3226 3.48339 37.1859C4.30156 37.0492 5.13426 37.2439 5.80018 37.7276C6.8435 38.499 8.03075 39.0523 9.29367 39.3561C10.5569 39.6598 11.8712 39.7077 13.1618 39.4977C14.4525 39.2874 15.694 38.8229 16.8156 38.1309C17.9373 37.4387 18.917 36.5322 19.6989 35.4635C20.4808 34.3948 21.0495 33.1848 21.3727 31.9021C21.6957 30.6197 21.7669 29.2899 21.5821 27.9886C21.3971 26.6875 20.96 25.4406 20.2952 24.3189C19.6306 23.1973 18.7514 22.2229 17.7081 21.4515C17.0427 20.9595 16.6027 20.2169 16.4848 19.3871C16.3669 18.5573 16.5808 17.7082 17.0794 17.0266C17.5781 16.345 18.3206 15.8868 19.1437 15.7527C19.9669 15.6186 20.8031 15.8197 21.4685 16.3117C23.1794 17.5669 24.6221 19.1556 25.7142 20.9868C26.8063 22.8182 27.5261 24.8559 27.8321 26.983C28.1383 29.1103 28.025 31.2854 27.4984 33.3833C26.9718 35.4812 26.0427 37.4608 24.764 39.2085C23.4853 40.9563 21.8822 42.4378 20.047 43.5681C18.2118 44.6983 16.1801 45.4551 14.0689 45.7949C11.9578 46.1351 9.80843 46.0514 7.74402 45.5489C5.67978 45.0466 3.74141 44.1352 2.03981 42.8673Z" fill="#E0FCB9"/>
<path d="M6.48429 29.6532C3.04644 27.1113 0.772854 23.2747 0.163761 18.9872C-0.445479 14.6999 0.659762 10.3128 3.23614 6.79137C5.81253 3.26989 9.64906 0.902403 13.9018 0.209706C18.1545 -0.483005 22.475 0.555842 25.9128 3.0977C26.5782 3.58967 27.0183 4.33225 27.1362 5.16207C27.2541 5.9919 27.0402 6.841 26.5415 7.52258C26.0428 8.20415 25.3003 8.66238 24.4772 8.79645C23.6541 8.93052 22.8178 8.72946 22.1525 8.23748C21.1091 7.46608 19.9221 6.91273 18.6589 6.60903C17.3958 6.30532 16.0815 6.25721 14.7909 6.46742C13.5002 6.67765 12.2587 7.14208 11.1371 7.83423C10.0155 8.52636 9.03575 9.43265 8.25387 10.5013C7.472 11.57 6.90326 12.7802 6.58017 14.0627C6.25707 15.3453 6.18593 16.6751 6.37074 17.9763C6.55569 19.2773 6.99287 20.5244 7.65754 21.6461C8.32232 22.7676 9.20135 23.742 10.2447 24.5134C10.9101 25.0054 11.3501 25.7479 11.468 26.5778C11.586 27.4075 11.372 28.2567 10.8734 28.9382C10.3747 29.6199 9.63208 30.0781 8.80904 30.2121C7.98589 30.3462 7.14968 30.1451 6.48429 29.6532Z" fill="#E0FCB9"/>
</svg>
